<?xml version="1.0" encoding="UTF-8"?>
<svg xmlns="http://www.w3.org/2000/svg" xmlns:xlink="http://www.w3.org/1999/xlink" version="1.1" id="Ebene_1" x="0px" y="0px" viewBox="0 0 379 92" style="enable-background:new 0 0 379 92;" xml:space="preserve">
<style type="text/css">
	.st0{fill:#52A46C;}
	.st1{fill:#FFFFFF;}
</style>
<g>
	<path class="st0" d="M14.4,36.2H11v-4.3h3.5V31c0-9.2,7-10.3,10.5-10.3c1.2,0,2,0.2,2,0.2v4.6c0,0-0.5-0.1-1.4-0.1   c-2.1,0-5.8,0.7-5.8,5.8v0.8h6.6v4.3h-6.6v23.5h-5.3V36.2z"></path>
	<path class="st0" d="M32.2,26.7c0-0.8-0.4-1.2-1.2-1.2h-2.3V21H34c2.5,0,3.5,1,3.5,3.5V54c0,0.8,0.4,1.2,1.2,1.2H41v4.6h-5.3   c-2.5,0-3.5-1-3.5-3.5V26.7z"></path>
	<path class="st0" d="M48.9,66.7c2.1,0,3.8-1.5,4.9-4l1.3-3l-9.5-22.1c-0.4-0.9-0.9-1.1-1.8-1.1h-0.7v-4.6h3.1c2.3,0,3.1,0.6,4,2.8   l6.3,15.7c0.5,1.4,1,3.4,1,3.4h0.1c0,0,0.4-1.9,0.9-3.4l5.8-15.7c0.8-2.2,1.8-2.8,4.1-2.8h3.2v4.6h-0.7c-0.9,0-1.4,0.2-1.8,1.1   l-11,27.2c-1.7,4.3-5.1,6.5-9,6.5c-4.1,0-6.5-2.7-6.5-2.7l2.2-3.8C44.9,64.8,46.6,66.7,48.9,66.7z"></path>
	<path class="st0" d="M77.4,37.7c0-0.8-0.4-1.2-1.2-1.2h-2.3v-4.6h5.2c2.5,0,3.5,1,3.5,3.5V54c0,0.8,0.4,1.2,1.2,1.2h2.3v4.6h-5.2   c-2.5,0-3.5-1-3.5-3.5V37.7z M77.5,21h4.8v5.6h-4.8V21z"></path>
	<path class="st0" d="M92.2,37.7c0-0.8-0.4-1.2-1.2-1.2h-2.3v-4.6h5.1c2.4,0,3.5,1,3.5,3.1v1c0,0.9-0.1,1.6-0.1,1.6h0.1   c1.1-2.4,4.4-6.4,10.4-6.4c6.6,0,9.6,3.6,9.6,10.7v12c0,0.8,0.4,1.2,1.2,1.2h2.3v4.6h-5.3c-2.5,0-3.5-1-3.5-3.5V43.2   c0-3.9-0.8-7-5.2-7c-4.3,0-7.7,2.8-8.8,6.8c-0.4,1.1-0.5,2.4-0.5,3.7v13h-5.3V37.7z"></path>
	<path class="st0" d="M136.2,31.3c6.9,0,8.9,4.3,8.9,4.3h0.1c0,0,0-0.4,0-0.9c0-1.6,0.9-2.8,3.1-2.8h5.2v4.6h-2.2   c-0.7,0-1.2,0.4-1.2,1.1v21c0,9.2-7,12.7-14,12.7c-3.4,0-6.8-0.9-9.5-2.3l1.8-4.3c0,0,3.4,1.9,7.6,1.9c4.8,0,8.8-2.1,8.8-7.8V57   c0-0.9,0.1-1.8,0.1-1.8h-0.1c-1.6,2.7-4.2,4.2-8.3,4.2c-7.7,0-12.4-6.2-12.4-14.2C124,37.2,128.5,31.3,136.2,31.3z M144.9,45.3   c0-7.3-3.6-9.3-7.9-9.3c-4.8,0-7.6,3.5-7.6,9.2c0,5.8,3,9.7,8,9.7C141.3,54.8,144.9,52.5,144.9,45.3z"></path>
	<path class="st1" d="M171.6,31.3c3.4,0,10,1.4,10,6.1v2.9h-4.8v-1.5c0-2-3.1-2.9-5.2-2.9c-5.4,0-9.5,4.1-9.5,10   c0,6.3,4.6,9.9,9.8,9.9c5.2,0,8.6-3.8,8.6-3.8l2.3,3.8c0,0-4,4.8-11.3,4.8c-8.7,0-14.8-6.2-14.8-14.6   C156.7,37.7,162.7,31.3,171.6,31.3z"></path>
	<path class="st1" d="M189,37.7c0-0.8-0.4-1.2-1.2-1.2h-2.3v-4.6h5.2c2.5,0,3.5,1,3.5,3.5V54c0,0.8,0.4,1.2,1.2,1.2h2.3v4.6h-5.2   c-2.5,0-3.5-1-3.5-3.5V37.7z M189.1,21h4.8v5.6h-4.8V21z"></path>
	<path class="st1" d="M203.8,37.7c0-0.8-0.4-1.2-1.2-1.2h-2.3v-4.6h5.1c2.4,0,3.6,1,3.6,3.2V37c0,1.1-0.1,1.9-0.1,1.9h0.1   c1.3-4.1,4.5-7.3,8.8-7.3c0.7,0,1.4,0.1,1.4,0.1V37c0,0-0.7-0.2-1.6-0.2c-3.4,0-6.5,2.4-7.8,6.5c-0.5,1.6-0.7,3.3-0.7,5v11.4h-5.3   V37.7z"></path>
	<path class="st1" d="M236.2,31.3c3.4,0,10,1.4,10,6.1v2.9h-4.8v-1.5c0-2-3.1-2.9-5.2-2.9c-5.4,0-9.5,4.1-9.5,10   c0,6.3,4.6,9.9,9.8,9.9c5.2,0,8.6-3.8,8.6-3.8l2.3,3.8c0,0-4,4.8-11.3,4.8c-8.7,0-14.8-6.2-14.8-14.6   C221.3,37.7,227.3,31.3,236.2,31.3z"></path>
	<path class="st1" d="M253.2,37.7c0-0.8-0.4-1.2-1.2-1.2h-2.3v-4.6h5.2c2.5,0,3.6,1,3.6,3.4v13.2c0,3.8,0.8,6.9,5.2,6.9   c5.7,0,9.1-5,9.1-10.5v-13h5.3V54c0,0.8,0.4,1.2,1.2,1.2h2.3v4.6h-5.1c-2.4,0-3.5-1.1-3.5-3.1v-1c0-0.9,0.1-1.6,0.1-1.6h-0.1   c-1.2,2.7-4.7,6.4-10.2,6.4c-6.3,0-9.5-3.3-9.5-10.7V37.7z"></path>
	<path class="st1" d="M287,52c0,0,3.3,4.1,8.4,4.1c2.6,0,4.8-1.2,4.8-3.6c0-5-15.2-4.5-15.2-13.4c0-5.3,4.7-7.8,10.3-7.8   c3.4,0,9.1,1.2,9.1,5.4v2.6h-4.8v-1.4c0-1.6-2.5-2.4-4.2-2.4c-3.1,0-5.2,1.1-5.2,3.3c0,5.3,15.2,4.1,15.2,13.4   c0,4.9-4.4,8.1-10.2,8.1c-7.4,0-11.1-4.9-11.1-4.9L287,52z"></path>
	<path class="st0" d="M311.6,54.1h5.4v5.7h-5.4V54.1z"></path>
	<path class="st0" d="M325.9,37.7c0-0.8-0.4-1.2-1.2-1.2h-2.3v-4.6h5.2c2.5,0,3.5,1,3.5,3.5V54c0,0.8,0.4,1.2,1.2,1.2h2.3v4.6h-5.2   c-2.5,0-3.5-1-3.5-3.5V37.7z M326,21h4.8v5.6H326V21z"></path>
	<path class="st0" d="M353,31.3c8.3,0,15,6.1,15,14.5c0,8.5-6.7,14.6-15,14.6s-15-6.2-15-14.6C338.1,37.4,344.7,31.3,353,31.3z    M353,55.8c5.3,0,9.6-4.2,9.6-10c0-5.8-4.3-9.9-9.6-9.9c-5.2,0-9.5,4.1-9.5,9.9C343.5,51.6,347.8,55.8,353,55.8z"></path>
</g>
</svg>
